<svg xmlns="http://www.w3.org/2000/svg" xmlns:xlink="http://www.w3.org/1999/xlink" width="300" zoomAndPan="magnify" viewBox="0 0 224.87999 74.999997" height="100" preserveAspectRatio="xMidYMid meet" version="1.0"><defs><g/><clipPath id="b4cea2b3ba"><path d="M 0 0.0195312 L 224.761719 0.0195312 L 224.761719 74.980469 L 0 74.980469 Z M 0 0.0195312 " clip-rule="nonzero"/></clipPath><clipPath id="5401d4e4a4"><path d="M 23.300781 37.5 L 201.703125 37.5 L 201.703125 74.980469 L 23.300781 74.980469 Z M 23.300781 37.5 " clip-rule="nonzero"/></clipPath><clipPath id="dd439d7b1a"><path d="M 92 29 L 112.992188 29 L 112.992188 46.382812 L 92 46.382812 Z M 92 29 " clip-rule="nonzero"/></clipPath><clipPath id="f720ec3285"><rect x="0" width="113" y="0" height="47"/></clipPath></defs><g clip-path="url(#b4cea2b3ba)"><path fill="#ffffff" d="M 0 0.0195312 L 224.878906 0.0195312 L 224.878906 74.980469 L 0 74.980469 Z M 0 0.0195312 " fill-opacity="1" fill-rule="nonzero"/><path fill="#f9f9f9" d="M 0 0.0195312 L 224.878906 0.0195312 L 224.878906 74.980469 L 0 74.980469 Z M 0 0.0195312 " fill-opacity="1" fill-rule="nonzero"/></g><g clip-path="url(#5401d4e4a4)"><path fill="#de89a1" d="M 31.359375 50.863281 C 26.207031 55.824219 23.300781 63.03125 23.570312 70.175781 C 23.925781 79.554688 29.601562 88.21875 37.230469 93.683594 C 44.859375 99.148438 54.246094 101.710938 63.585938 102.632812 C 71.609375 103.425781 79.699219 103.082031 87.753906 103.417969 C 103.121094 104.066406 118.273438 107.1875 133.589844 108.582031 C 148.90625 109.972656 164.84375 109.527344 178.945312 103.390625 C 183.515625 101.40625 187.890625 98.792969 191.28125 95.148438 C 198.753906 87.121094 200.449219 75.40625 201.132812 64.460938 C 201.457031 59.210938 201.574219 53.679688 199.175781 48.992188 C 196.375 43.515625 190.503906 40.136719 184.488281 38.828125 C 178.476562 37.515625 172.242188 37.984375 166.101562 38.398438 C 146.878906 39.707031 127.625 40.476562 108.367188 40.980469 C 98.832031 41.230469 89.296875 41.425781 79.761719 41.566406 C 71.03125 41.703125 61.160156 40.53125 52.585938 42.222656 C 45.09375 43.703125 37.039062 45.402344 31.359375 50.863281 Z M 31.359375 50.863281 " fill-opacity="1" fill-rule="nonzero"/></g><g transform="matrix(1, 0, 0, 1, 53, 22)"><g clip-path="url(#f720ec3285)"><g fill="#ffffff" fill-opacity="1"><g transform="translate(7.556507, 37.389859)"><g><path d="M 14.28125 -6.796875 C 14.425781 -6.796875 14.554688 -6.738281 14.671875 -6.625 C 14.785156 -6.507812 14.84375 -6.375 14.84375 -6.21875 C 14.84375 -6.019531 14.769531 -5.878906 14.625 -5.796875 C 13.757812 -5.140625 12.648438 -4.613281 11.296875 -4.21875 C 9.953125 -3.820312 8.628906 -3.484375 7.328125 -3.203125 L 6.953125 -3.125 C 6.234375 -2.132812 5.4375 -1.320312 4.5625 -0.6875 C 3.6875 -0.0507812 2.90625 0.265625 2.21875 0.265625 C 1.8125 0.265625 1.472656 0.148438 1.203125 -0.078125 C 0.929688 -0.304688 0.796875 -0.597656 0.796875 -0.953125 C 0.796875 -1.535156 1.054688 -2.019531 1.578125 -2.40625 C 2.097656 -2.789062 2.78125 -3.113281 3.625 -3.375 C 4.46875 -3.644531 5.359375 -3.894531 6.296875 -4.125 C 6.984375 -5.113281 7.328125 -5.988281 7.328125 -6.75 C 7.328125 -7.082031 7.1875 -7.25 6.90625 -7.25 C 6.164062 -7.25 5.128906 -6.695312 3.796875 -5.59375 C 2.460938 -4.488281 1.015625 -2.914062 -0.546875 -0.875 C -2.117188 1.15625 -3.640625 3.570312 -5.109375 6.375 C -5.191406 6.582031 -5.347656 6.6875 -5.578125 6.6875 C -5.722656 6.6875 -5.851562 6.628906 -5.96875 6.515625 C -6.082031 6.398438 -6.140625 6.265625 -6.140625 6.109375 C -6.140625 6.054688 -6.132812 6.015625 -6.125 5.984375 C -6.113281 5.960938 -6.109375 5.941406 -6.109375 5.921875 C -6.003906 5.660156 -5.773438 5.1875 -5.421875 4.5 C -5.066406 3.8125 -4.640625 3.007812 -4.140625 2.09375 C -3.640625 1.175781 -3.125 0.238281 -2.59375 -0.71875 C -2.0625 -1.6875 -1.566406 -2.59375 -1.109375 -3.4375 L 0.1875 -5.796875 C 0.34375 -6.003906 0.507812 -6.109375 0.6875 -6.109375 C 1.039062 -6.109375 1.21875 -5.914062 1.21875 -5.53125 C 1.21875 -5.40625 1.207031 -5.316406 1.1875 -5.265625 L -0.15625 -2.90625 L -0.265625 -2.671875 C 2.859375 -6.441406 5.265625 -8.328125 6.953125 -8.328125 C 7.410156 -8.328125 7.769531 -8.1875 8.03125 -7.90625 C 8.300781 -7.625 8.4375 -7.238281 8.4375 -6.75 C 8.4375 -6.0625 8.21875 -5.285156 7.78125 -4.421875 C 8.976562 -4.703125 10.128906 -5.007812 11.234375 -5.34375 C 12.347656 -5.675781 13.257812 -6.125 13.96875 -6.6875 C 14.019531 -6.707031 14.070312 -6.726562 14.125 -6.75 C 14.175781 -6.78125 14.226562 -6.796875 14.28125 -6.796875 Z M 2.21875 -0.84375 C 2.59375 -0.84375 3.046875 -1.015625 3.578125 -1.359375 C 4.117188 -1.703125 4.65625 -2.148438 5.1875 -2.703125 C 3.988281 -2.378906 3.140625 -2.082031 2.640625 -1.8125 C 2.148438 -1.539062 1.90625 -1.253906 1.90625 -0.953125 C 1.90625 -0.878906 2.007812 -0.84375 2.21875 -0.84375 Z M 2.21875 -0.84375 "/></g></g></g><g fill="#ffffff" fill-opacity="1"><g transform="translate(20.49284, 37.389859)"><g><path d="M 11.453125 -5.953125 C 11.578125 -5.953125 11.695312 -5.898438 11.8125 -5.796875 C 11.925781 -5.703125 11.984375 -5.578125 11.984375 -5.421875 C 11.984375 -5.242188 11.90625 -5.09375 11.75 -4.96875 C 11.425781 -4.757812 10.898438 -4.457031 10.171875 -4.0625 C 9.441406 -3.664062 8.671875 -3.46875 7.859375 -3.46875 C 7.347656 -3.46875 6.972656 -3.601562 6.734375 -3.875 C 6.492188 -4.144531 6.332031 -4.46875 6.25 -4.84375 C 6.175781 -5.226562 6.128906 -5.5625 6.109375 -5.84375 C 6.078125 -6.175781 6.035156 -6.40625 5.984375 -6.53125 C 5.941406 -6.65625 5.832031 -6.71875 5.65625 -6.71875 C 5.46875 -6.71875 5.113281 -6.546875 4.59375 -6.203125 C 4.070312 -5.859375 3.46875 -5.398438 2.78125 -4.828125 C 2.09375 -4.253906 1.414062 -3.628906 0.75 -2.953125 C 0.09375 -2.285156 -0.460938 -1.617188 -0.921875 -0.953125 C -1.097656 -0.703125 -1.335938 -0.625 -1.640625 -0.71875 L -1.671875 -0.71875 C -2.003906 -0.875 -2.109375 -1.117188 -1.984375 -1.453125 C -1.734375 -2.109375 -1.378906 -2.875 -0.921875 -3.75 C -0.460938 -4.632812 0.00390625 -5.46875 0.484375 -6.25 C 0.972656 -7.039062 1.359375 -7.617188 1.640625 -7.984375 C 1.765625 -8.109375 1.90625 -8.171875 2.0625 -8.171875 C 2.445312 -8.171875 2.640625 -7.992188 2.640625 -7.640625 C 2.640625 -7.484375 2.597656 -7.367188 2.515625 -7.296875 C 2.285156 -7.015625 2 -6.601562 1.65625 -6.0625 C 1.3125 -5.53125 0.960938 -4.9375 0.609375 -4.28125 C 0.585938 -4.226562 0.582031 -4.191406 0.59375 -4.171875 C 0.601562 -4.160156 0.6875 -4.222656 0.84375 -4.359375 C 1.476562 -4.960938 2.125 -5.523438 2.78125 -6.046875 C 3.445312 -6.566406 4.054688 -6.984375 4.609375 -7.296875 C 5.171875 -7.617188 5.617188 -7.78125 5.953125 -7.78125 C 6.359375 -7.78125 6.65625 -7.640625 6.84375 -7.359375 C 7.039062 -7.085938 7.164062 -6.617188 7.21875 -5.953125 C 7.269531 -5.390625 7.332031 -5.019531 7.40625 -4.84375 C 7.476562 -4.664062 7.628906 -4.578125 7.859375 -4.578125 C 8.492188 -4.578125 9.125 -4.742188 9.75 -5.078125 C 10.375 -5.410156 10.828125 -5.675781 11.109375 -5.875 C 11.179688 -5.925781 11.296875 -5.953125 11.453125 -5.953125 Z M 11.453125 -5.953125 "/></g></g></g><g fill="#ffffff" fill-opacity="1"><g transform="translate(31.330368, 37.389859)"><g><path d="M 10.453125 -6.03125 C 10.816406 -6.03125 11 -5.851562 11 -5.5 C 11 -5.34375 10.972656 -5.226562 10.921875 -5.15625 C 10.765625 -4.976562 10.484375 -4.675781 10.078125 -4.25 C 9.671875 -3.832031 9.160156 -3.394531 8.546875 -2.9375 C 7.941406 -2.476562 7.25 -2.082031 6.46875 -1.75 C 5.695312 -1.425781 4.863281 -1.265625 3.96875 -1.265625 C 3.539062 -1.265625 3.171875 -1.3125 2.859375 -1.40625 C 1.890625 -0.394531 0.972656 0.109375 0.109375 0.109375 C -0.398438 0.109375 -0.8125 -0.046875 -1.125 -0.359375 C -1.445312 -0.679688 -1.609375 -1.117188 -1.609375 -1.671875 C -1.609375 -2.359375 -1.425781 -3.082031 -1.0625 -3.84375 C -0.707031 -4.613281 -0.25 -5.265625 0.3125 -5.796875 C 0.5625 -6.054688 0.765625 -6.109375 0.921875 -5.953125 L 0.875 -6.03125 C 1.082031 -6.5625 1.398438 -6.992188 1.828125 -7.328125 C 2.265625 -7.660156 2.738281 -7.828125 3.25 -7.828125 C 3.78125 -7.828125 4.203125 -7.65625 4.515625 -7.3125 C 4.835938 -6.96875 5 -6.503906 5 -5.921875 C 5 -4.796875 4.554688 -3.609375 3.671875 -2.359375 L 3.96875 -2.359375 C 4.726562 -2.359375 5.4375 -2.5 6.09375 -2.78125 C 6.757812 -3.0625 7.359375 -3.40625 7.890625 -3.8125 C 8.429688 -4.21875 8.882812 -4.613281 9.25 -5 C 9.625 -5.382812 9.875 -5.664062 10 -5.84375 C 10.125 -5.96875 10.273438 -6.03125 10.453125 -6.03125 Z M 2.59375 -2.75 C 3.457031 -3.894531 3.890625 -4.953125 3.890625 -5.921875 C 3.890625 -6.453125 3.675781 -6.71875 3.25 -6.71875 C 2.84375 -6.71875 2.488281 -6.523438 2.1875 -6.140625 C 1.894531 -5.765625 1.75 -5.28125 1.75 -4.6875 C 1.75 -3.800781 2.03125 -3.15625 2.59375 -2.75 Z M 0.109375 -1 C 0.335938 -1 0.601562 -1.070312 0.90625 -1.21875 C 1.21875 -1.375 1.523438 -1.617188 1.828125 -1.953125 C 1.046875 -2.535156 0.65625 -3.445312 0.65625 -4.6875 L 0.65625 -4.578125 C 0.320312 -4.148438 0.046875 -3.671875 -0.171875 -3.140625 C -0.390625 -2.617188 -0.5 -2.128906 -0.5 -1.671875 C -0.5 -1.222656 -0.296875 -1 0.109375 -1 Z M 0.109375 -1 "/></g></g></g><g fill="#ffffff" fill-opacity="1"><g transform="translate(41.175719, 37.389859)"><g/></g></g><g fill="#ffffff" fill-opacity="1"><g transform="translate(50.334188, 37.389859)"><g><path d="M 18.328125 -6.03125 C 18.679688 -6.03125 18.859375 -5.851562 18.859375 -5.5 C 18.859375 -5.34375 18.796875 -5.203125 18.671875 -5.078125 C 17.804688 -4.316406 16.914062 -3.550781 16 -2.78125 C 15.082031 -2.019531 14.191406 -1.390625 13.328125 -0.890625 C 12.460938 -0.398438 11.671875 -0.15625 10.953125 -0.15625 C 10.117188 -0.15625 9.703125 -0.570312 9.703125 -1.40625 C 9.703125 -1.613281 9.757812 -1.894531 9.875 -2.25 C 9.988281 -2.601562 10.109375 -2.945312 10.234375 -3.28125 C 10.359375 -3.582031 10.476562 -3.90625 10.59375 -4.25 C 10.707031 -4.59375 10.796875 -4.890625 10.859375 -5.140625 C 10.921875 -5.398438 10.914062 -5.53125 10.84375 -5.53125 C 10.664062 -5.53125 10.335938 -5.3125 9.859375 -4.875 C 9.390625 -4.445312 8.75 -3.851562 7.9375 -3.09375 C 6.914062 -2.101562 6.175781 -1.441406 5.71875 -1.109375 C 5.257812 -0.773438 4.894531 -0.609375 4.625 -0.609375 C 4.164062 -0.609375 3.9375 -0.851562 3.9375 -1.34375 C 3.9375 -1.59375 4.035156 -1.953125 4.234375 -2.421875 C 4.441406 -2.890625 4.644531 -3.378906 4.84375 -3.890625 C 5.195312 -4.703125 5.46875 -5.375 5.65625 -5.90625 C 5.851562 -6.445312 5.890625 -6.71875 5.765625 -6.71875 C 5.554688 -6.71875 5 -6.316406 4.09375 -5.515625 C 3.195312 -4.710938 1.984375 -3.535156 0.453125 -1.984375 C -0.148438 -1.421875 -0.660156 -0.9375 -1.078125 -0.53125 C -1.503906 -0.125 -1.832031 0.078125 -2.0625 0.078125 C -2.46875 0.078125 -2.671875 -0.140625 -2.671875 -0.578125 C -2.671875 -0.773438 -2.523438 -1.171875 -2.234375 -1.765625 C -1.941406 -2.367188 -1.554688 -3.054688 -1.078125 -3.828125 C -0.609375 -4.609375 -0.109375 -5.390625 0.421875 -6.171875 C 0.953125 -6.960938 1.460938 -7.664062 1.953125 -8.28125 C 2.023438 -8.40625 2.160156 -8.46875 2.359375 -8.46875 C 2.722656 -8.46875 2.90625 -8.289062 2.90625 -7.9375 C 2.90625 -7.78125 2.863281 -7.664062 2.78125 -7.59375 C 2.320312 -7.007812 1.796875 -6.269531 1.203125 -5.375 C 0.609375 -4.488281 0.101562 -3.710938 -0.3125 -3.046875 C -0.332031 -2.953125 -0.335938 -2.882812 -0.328125 -2.84375 C -0.316406 -2.800781 -0.269531 -2.832031 -0.1875 -2.9375 C 1.613281 -4.75 2.976562 -6.015625 3.90625 -6.734375 C 4.84375 -7.460938 5.5625 -7.828125 6.0625 -7.828125 C 6.707031 -7.828125 7.03125 -7.484375 7.03125 -6.796875 C 7.03125 -6.410156 6.90625 -5.898438 6.65625 -5.265625 C 6.414062 -4.628906 6.15625 -4.019531 5.875 -3.4375 L 5.53125 -2.703125 C 5.507812 -2.609375 5.503906 -2.523438 5.515625 -2.453125 C 5.523438 -2.390625 5.632812 -2.4375 5.84375 -2.59375 C 5.914062 -2.664062 6.078125 -2.820312 6.328125 -3.0625 C 6.585938 -3.3125 6.867188 -3.585938 7.171875 -3.890625 C 8.367188 -4.984375 9.222656 -5.710938 9.734375 -6.078125 C 10.242188 -6.453125 10.664062 -6.640625 11 -6.640625 C 11.65625 -6.640625 11.984375 -6.269531 11.984375 -5.53125 C 11.984375 -5.195312 11.90625 -4.78125 11.75 -4.28125 C 11.601562 -3.789062 11.441406 -3.332031 11.265625 -2.90625 C 11.085938 -2.445312 10.972656 -2.117188 10.921875 -1.921875 C 10.867188 -1.734375 10.84375 -1.601562 10.84375 -1.53125 C 10.84375 -1.375 10.914062 -1.296875 11.0625 -1.296875 C 11.550781 -1.296875 12.164062 -1.519531 12.90625 -1.96875 C 13.644531 -2.414062 14.453125 -2.988281 15.328125 -3.6875 C 16.203125 -4.382812 17.070312 -5.113281 17.9375 -5.875 C 18.039062 -5.976562 18.171875 -6.03125 18.328125 -6.03125 Z M 18.328125 -6.03125 "/></g></g></g><g fill="#ffffff" fill-opacity="1"><g transform="translate(68.040562, 37.389859)"><g><path d="M 3.59375 -8.359375 C 3.257812 -8.359375 3.09375 -8.523438 3.09375 -8.859375 C 3.09375 -9.085938 3.191406 -9.238281 3.390625 -9.3125 C 3.804688 -9.519531 4.21875 -9.796875 4.625 -10.140625 C 5.03125 -10.484375 5.390625 -10.828125 5.703125 -11.171875 C 6.023438 -11.515625 6.222656 -11.773438 6.296875 -11.953125 C 6.421875 -12.148438 6.570312 -12.25 6.75 -12.25 C 7.113281 -12.25 7.296875 -12.082031 7.296875 -11.75 C 7.296875 -11.707031 7.269531 -11.632812 7.21875 -11.53125 C 7.113281 -11.300781 6.882812 -10.96875 6.53125 -10.53125 C 6.175781 -10.101562 5.753906 -9.691406 5.265625 -9.296875 C 4.785156 -8.898438 4.289062 -8.597656 3.78125 -8.390625 C 3.726562 -8.367188 3.664062 -8.359375 3.59375 -8.359375 Z M 14.359375 -6.21875 C 14.503906 -6.21875 14.632812 -6.160156 14.75 -6.046875 C 14.863281 -5.929688 14.921875 -5.800781 14.921875 -5.65625 C 14.921875 -5.519531 14.859375 -5.390625 14.734375 -5.265625 C 13.179688 -3.710938 11.664062 -2.5 10.1875 -1.625 C 8.71875 -0.75 7.4375 -0.3125 6.34375 -0.3125 C 4.96875 -0.3125 4.28125 -0.984375 4.28125 -2.328125 C 4.28125 -2.535156 4.296875 -2.757812 4.328125 -3 C 4.367188 -3.238281 4.398438 -3.410156 4.421875 -3.515625 C 4.421875 -3.566406 4.4375 -3.59375 4.46875 -3.59375 L 4.359375 -3.46875 C 3.054688 -2.300781 1.988281 -1.441406 1.15625 -0.890625 C 0.332031 -0.347656 -0.367188 -0.078125 -0.953125 -0.078125 C -1.847656 -0.078125 -2.296875 -0.519531 -2.296875 -1.40625 C -2.296875 -2.039062 -2.078125 -2.734375 -1.640625 -3.484375 C -1.210938 -4.242188 -0.65625 -4.96875 0.03125 -5.65625 C 0.71875 -6.34375 1.4375 -6.898438 2.1875 -7.328125 C 2.945312 -7.765625 3.644531 -7.984375 4.28125 -7.984375 C 5.144531 -7.984375 5.78125 -7.613281 6.1875 -6.875 C 6.257812 -6.945312 6.328125 -7.019531 6.390625 -7.09375 C 6.453125 -7.175781 6.507812 -7.253906 6.5625 -7.328125 L 6.90625 -7.75 C 7.03125 -7.875 7.171875 -7.9375 7.328125 -7.9375 C 7.484375 -7.9375 7.609375 -7.878906 7.703125 -7.765625 C 7.804688 -7.648438 7.859375 -7.53125 7.859375 -7.40625 C 7.859375 -7.28125 7.820312 -7.15625 7.75 -7.03125 C 7.082031 -6.1875 6.515625 -5.3125 6.046875 -4.40625 C 5.578125 -3.5 5.34375 -2.804688 5.34375 -2.328125 C 5.34375 -1.972656 5.414062 -1.722656 5.5625 -1.578125 C 5.71875 -1.441406 5.976562 -1.375 6.34375 -1.375 C 7.15625 -1.375 8.28125 -1.765625 9.71875 -2.546875 C 11.15625 -3.335938 12.570312 -4.507812 13.96875 -6.0625 C 14.070312 -6.164062 14.203125 -6.21875 14.359375 -6.21875 Z M -0.796875 -1.1875 C -0.367188 -1.1875 0.351562 -1.570312 1.375 -2.34375 C 2.394531 -3.125 3.726562 -4.34375 5.375 -6 C 5.25 -6.582031 4.882812 -6.875 4.28125 -6.875 C 3.789062 -6.875 3.234375 -6.679688 2.609375 -6.296875 C 1.984375 -5.910156 1.378906 -5.429688 0.796875 -4.859375 C 0.210938 -4.296875 -0.265625 -3.71875 -0.640625 -3.125 C -1.023438 -2.539062 -1.21875 -2.035156 -1.21875 -1.609375 C -1.21875 -1.328125 -1.078125 -1.1875 -0.796875 -1.1875 Z M -0.796875 -1.1875 "/></g></g></g><g fill="#ffffff" fill-opacity="1"><g transform="translate(81.701948, 37.389859)"><g><path d="M 18.328125 -6.03125 C 18.679688 -6.03125 18.859375 -5.851562 18.859375 -5.5 C 18.859375 -5.34375 18.796875 -5.203125 18.671875 -5.078125 C 17.804688 -4.316406 16.914062 -3.550781 16 -2.78125 C 15.082031 -2.019531 14.191406 -1.390625 13.328125 -0.890625 C 12.460938 -0.398438 11.671875 -0.15625 10.953125 -0.15625 C 10.117188 -0.15625 9.703125 -0.570312 9.703125 -1.40625 C 9.703125 -1.613281 9.757812 -1.894531 9.875 -2.25 C 9.988281 -2.601562 10.109375 -2.945312 10.234375 -3.28125 C 10.359375 -3.582031 10.476562 -3.90625 10.59375 -4.25 C 10.707031 -4.59375 10.796875 -4.890625 10.859375 -5.140625 C 10.921875 -5.398438 10.914062 -5.53125 10.84375 -5.53125 C 10.664062 -5.53125 10.335938 -5.3125 9.859375 -4.875 C 9.390625 -4.445312 8.75 -3.851562 7.9375 -3.09375 C 6.914062 -2.101562 6.175781 -1.441406 5.71875 -1.109375 C 5.257812 -0.773438 4.894531 -0.609375 4.625 -0.609375 C 4.164062 -0.609375 3.9375 -0.851562 3.9375 -1.34375 C 3.9375 -1.59375 4.035156 -1.953125 4.234375 -2.421875 C 4.441406 -2.890625 4.644531 -3.378906 4.84375 -3.890625 C 5.195312 -4.703125 5.46875 -5.375 5.65625 -5.90625 C 5.851562 -6.445312 5.890625 -6.71875 5.765625 -6.71875 C 5.554688 -6.71875 5 -6.316406 4.09375 -5.515625 C 3.195312 -4.710938 1.984375 -3.535156 0.453125 -1.984375 C -0.148438 -1.421875 -0.660156 -0.9375 -1.078125 -0.53125 C -1.503906 -0.125 -1.832031 0.078125 -2.0625 0.078125 C -2.46875 0.078125 -2.671875 -0.140625 -2.671875 -0.578125 C -2.671875 -0.773438 -2.523438 -1.171875 -2.234375 -1.765625 C -1.941406 -2.367188 -1.554688 -3.054688 -1.078125 -3.828125 C -0.609375 -4.609375 -0.109375 -5.390625 0.421875 -6.171875 C 0.953125 -6.960938 1.460938 -7.664062 1.953125 -8.28125 C 2.023438 -8.40625 2.160156 -8.46875 2.359375 -8.46875 C 2.722656 -8.46875 2.90625 -8.289062 2.90625 -7.9375 C 2.90625 -7.78125 2.863281 -7.664062 2.78125 -7.59375 C 2.320312 -7.007812 1.796875 -6.269531 1.203125 -5.375 C 0.609375 -4.488281 0.101562 -3.710938 -0.3125 -3.046875 C -0.332031 -2.953125 -0.335938 -2.882812 -0.328125 -2.84375 C -0.316406 -2.800781 -0.269531 -2.832031 -0.1875 -2.9375 C 1.613281 -4.75 2.976562 -6.015625 3.90625 -6.734375 C 4.84375 -7.460938 5.5625 -7.828125 6.0625 -7.828125 C 6.707031 -7.828125 7.03125 -7.484375 7.03125 -6.796875 C 7.03125 -6.410156 6.90625 -5.898438 6.65625 -5.265625 C 6.414062 -4.628906 6.15625 -4.019531 5.875 -3.4375 L 5.53125 -2.703125 C 5.507812 -2.609375 5.503906 -2.523438 5.515625 -2.453125 C 5.523438 -2.390625 5.632812 -2.4375 5.84375 -2.59375 C 5.914062 -2.664062 6.078125 -2.820312 6.328125 -3.0625 C 6.585938 -3.3125 6.867188 -3.585938 7.171875 -3.890625 C 8.367188 -4.984375 9.222656 -5.710938 9.734375 -6.078125 C 10.242188 -6.453125 10.664062 -6.640625 11 -6.640625 C 11.65625 -6.640625 11.984375 -6.269531 11.984375 -5.53125 C 11.984375 -5.195312 11.90625 -4.78125 11.75 -4.28125 C 11.601562 -3.789062 11.441406 -3.332031 11.265625 -2.90625 C 11.085938 -2.445312 10.972656 -2.117188 10.921875 -1.921875 C 10.867188 -1.734375 10.84375 -1.601562 10.84375 -1.53125 C 10.84375 -1.375 10.914062 -1.296875 11.0625 -1.296875 C 11.550781 -1.296875 12.164062 -1.519531 12.90625 -1.96875 C 13.644531 -2.414062 14.453125 -2.988281 15.328125 -3.6875 C 16.203125 -4.382812 17.070312 -5.113281 17.9375 -5.875 C 18.039062 -5.976562 18.171875 -6.03125 18.328125 -6.03125 Z M 18.328125 -6.03125 "/></g></g></g><g clip-path="url(#dd439d7b1a)"><g fill="#ffffff" fill-opacity="1"><g transform="translate(99.408321, 37.389859)"><g><path d="M 12.515625 -6.03125 C 12.878906 -6.03125 13.0625 -5.851562 13.0625 -5.5 C 13.0625 -5.320312 13.007812 -5.191406 12.90625 -5.109375 C 10.96875 -3.304688 9.101562 -1.828125 7.3125 -0.671875 C 5.519531 0.484375 3.867188 1.429688 2.359375 2.171875 C -0.460938 6.628906 -2.878906 8.859375 -4.890625 8.859375 C -5.578125 8.859375 -6.132812 8.660156 -6.5625 8.265625 C -7 7.867188 -7.21875 7.378906 -7.21875 6.796875 C -7.21875 5.898438 -6.773438 5.195312 -5.890625 4.6875 C -5.015625 4.1875 -3.914062 3.664062 -2.59375 3.125 C -1.976562 2.894531 -1.304688 2.628906 -0.578125 2.328125 C 0.140625 2.023438 0.890625 1.679688 1.671875 1.296875 C 2.109375 0.554688 2.535156 -0.175781 2.953125 -0.90625 C 3.378906 -1.644531 3.753906 -2.359375 4.078125 -3.046875 C 3.242188 -2.179688 2.453125 -1.507812 1.703125 -1.03125 C 0.953125 -0.550781 0.296875 -0.3125 -0.265625 -0.3125 C -0.671875 -0.3125 -1 -0.445312 -1.25 -0.71875 C -1.507812 -1 -1.648438 -1.359375 -1.671875 -1.796875 C -1.722656 -2.992188 -0.65625 -4.847656 1.53125 -7.359375 C 1.625 -7.492188 1.773438 -7.5625 1.984375 -7.5625 C 2.109375 -7.5625 2.226562 -7.507812 2.34375 -7.40625 C 2.457031 -7.300781 2.515625 -7.175781 2.515625 -7.03125 C 2.515625 -6.925781 2.476562 -6.796875 2.40625 -6.640625 C 1.4375 -5.546875 0.691406 -4.578125 0.171875 -3.734375 C -0.347656 -2.898438 -0.597656 -2.265625 -0.578125 -1.828125 C -0.578125 -1.546875 -0.472656 -1.40625 -0.265625 -1.40625 C 0.210938 -1.40625 0.816406 -1.671875 1.546875 -2.203125 C 2.273438 -2.742188 3.050781 -3.476562 3.875 -4.40625 C 4.695312 -5.332031 5.503906 -6.382812 6.296875 -7.5625 C 6.421875 -7.738281 6.570312 -7.828125 6.75 -7.828125 C 6.90625 -7.828125 7.039062 -7.769531 7.15625 -7.65625 C 7.269531 -7.539062 7.328125 -7.40625 7.328125 -7.25 C 7.328125 -7.144531 7.300781 -7.070312 7.25 -7.03125 C 7.226562 -6.976562 7.191406 -6.898438 7.140625 -6.796875 C 7.085938 -6.691406 7.023438 -6.550781 6.953125 -6.375 C 6.671875 -5.757812 6.222656 -4.828125 5.609375 -3.578125 C 4.992188 -2.335938 4.28125 -1.019531 3.46875 0.375 C 4.769531 -0.351562 6.148438 -1.21875 7.609375 -2.21875 C 9.078125 -3.226562 10.585938 -4.460938 12.140625 -5.921875 C 12.265625 -5.992188 12.390625 -6.03125 12.515625 -6.03125 Z M -4.890625 7.75 C -4.046875 7.75 -3.160156 7.296875 -2.234375 6.390625 C -1.304688 5.484375 -0.382812 4.367188 0.53125 3.046875 C 0.0507812 3.253906 -0.414062 3.445312 -0.875 3.625 C -1.332031 3.800781 -1.765625 3.976562 -2.171875 4.15625 C -3.523438 4.695312 -4.519531 5.140625 -5.15625 5.484375 C -5.789062 5.828125 -6.109375 6.265625 -6.109375 6.796875 C -6.109375 7.429688 -5.703125 7.75 -4.890625 7.75 Z M -4.890625 7.75 "/></g></g></g></g></g></g><g fill="#000000" fill-opacity="1"><g transform="translate(10.654092, 36.217806)"><g><path d="M 2.015625 -1.203125 C 2.867188 -1.234375 3.476562 -1.429688 3.84375 -1.796875 C 4.207031 -2.160156 4.410156 -2.59375 4.453125 -3.09375 C 4.503906 -3.59375 4.53125 -4.460938 4.53125 -5.703125 L 4.53125 -21.484375 C 4.53125 -22.515625 4.566406 -23.394531 4.640625 -24.125 L 2.015625 -23.96875 L 2.015625 -25.578125 C 5.421875 -25.628906 8.132812 -25.65625 10.15625 -25.65625 C 13.789062 -25.65625 16.539062 -25.019531 18.40625 -23.75 C 20.269531 -22.488281 21.203125 -20.625 21.203125 -18.15625 C 21.203125 -16.75 20.828125 -15.398438 20.078125 -14.109375 C 19.335938 -12.816406 18.054688 -11.742188 16.234375 -10.890625 C 14.421875 -10.035156 12.019531 -9.609375 9.03125 -9.609375 C 8.46875 -9.609375 8.03125 -9.617188 7.71875 -9.640625 L 7.71875 -4.34375 C 7.71875 -3.050781 7.679688 -2.09375 7.609375 -1.46875 L 10.96875 -1.640625 L 10.96875 0 L 2.015625 0 Z M 10.09375 -11.03125 C 11.476562 -11.03125 12.75 -11.304688 13.90625 -11.859375 C 15.0625 -12.410156 15.972656 -13.203125 16.640625 -14.234375 C 17.316406 -15.265625 17.65625 -16.476562 17.65625 -17.875 C 17.65625 -20.0625 16.984375 -21.664062 15.640625 -22.6875 C 14.296875 -23.71875 12.445312 -24.234375 10.09375 -24.234375 C 9.257812 -24.234375 8.675781 -24.0625 8.34375 -23.71875 C 8.019531 -23.375 7.832031 -22.960938 7.78125 -22.484375 C 7.738281 -22.015625 7.71875 -21.144531 7.71875 -19.875 L 7.71875 -11.140625 C 8.320312 -11.066406 9.113281 -11.03125 10.09375 -11.03125 Z M 10.09375 -11.03125 "/></g></g></g><g fill="#000000" fill-opacity="1"><g transform="translate(32.433609, 36.217806)"><g><path d="M 10.671875 0.578125 C 8.992188 0.578125 7.453125 0.179688 6.046875 -0.609375 C 4.648438 -1.398438 3.539062 -2.5 2.71875 -3.90625 C 1.90625 -5.320312 1.5 -6.921875 1.5 -8.703125 C 1.5 -10.597656 1.898438 -12.316406 2.703125 -13.859375 C 3.503906 -15.410156 4.601562 -16.628906 6 -17.515625 C 7.40625 -18.410156 8.960938 -18.859375 10.671875 -18.859375 C 12.347656 -18.859375 13.894531 -18.445312 15.3125 -17.625 C 16.726562 -16.8125 17.84375 -15.695312 18.65625 -14.28125 C 19.46875 -12.875 19.875 -11.304688 19.875 -9.578125 C 19.875 -7.722656 19.46875 -6.015625 18.65625 -4.453125 C 17.84375 -2.898438 16.734375 -1.671875 15.328125 -0.765625 C 13.929688 0.128906 12.378906 0.578125 10.671875 0.578125 Z M 10.96875 -0.875 C 12.738281 -0.875 14.046875 -1.601562 14.890625 -3.0625 C 15.734375 -4.53125 16.15625 -6.347656 16.15625 -8.515625 C 16.15625 -10.972656 15.695312 -13.078125 14.78125 -14.828125 C 13.863281 -16.585938 12.492188 -17.46875 10.671875 -17.46875 C 8.867188 -17.46875 7.507812 -16.722656 6.59375 -15.234375 C 5.675781 -13.753906 5.21875 -11.929688 5.21875 -9.765625 C 5.21875 -8.203125 5.429688 -6.742188 5.859375 -5.390625 C 6.285156 -4.035156 6.929688 -2.941406 7.796875 -2.109375 C 8.660156 -1.285156 9.71875 -0.875 10.96875 -0.875 Z M 10.96875 -0.875 "/></g></g></g><g fill="#000000" fill-opacity="1"><g transform="translate(53.628474, 36.217806)"><g><path d="M 3.328125 -11.796875 C 2.347656 -14.046875 1.835938 -15.742188 1.796875 -16.890625 L 0.21875 -16.78125 L 0.21875 -18.28125 L 6.9375 -18.28125 L 6.9375 -17.171875 C 5.863281 -17.171875 5.328125 -16.722656 5.328125 -15.828125 C 5.328125 -15.171875 5.585938 -14.269531 6.109375 -13.125 L 8.921875 -6.6875 C 9.234375 -5.9375 9.597656 -5.035156 10.015625 -3.984375 L 10.046875 -3.984375 C 10.117188 -4.222656 10.21875 -4.488281 10.34375 -4.78125 L 10.890625 -6.359375 L 13.8125 -14.359375 C 14.0625 -15.066406 14.425781 -15.910156 14.90625 -16.890625 L 12.578125 -16.78125 L 12.578125 -18.28125 L 18.34375 -18.28125 L 18.34375 -17.171875 C 17.832031 -17.171875 17.394531 -16.992188 17.03125 -16.640625 C 16.664062 -16.296875 16.328125 -15.804688 16.015625 -15.171875 C 15.710938 -14.535156 15.304688 -13.5625 14.796875 -12.25 L 10.015625 0.109375 L 8.546875 0.109375 Z M 3.328125 -11.796875 "/></g></g></g><g fill="#000000" fill-opacity="1"><g transform="translate(72.082659, 36.217806)"><g><path d="M 1.46875 -1.5 L 11.65625 -14.625 C 12.050781 -15.132812 12.441406 -15.625 12.828125 -16.09375 C 13.210938 -16.570312 13.515625 -16.875 13.734375 -17 L 6.875 -16.890625 C 5.625 -16.859375 4.75 -16.410156 4.25 -15.546875 C 3.757812 -14.679688 3.390625 -13.410156 3.140625 -11.734375 L 2.015625 -11.734375 L 2.453125 -18.28125 L 16.78125 -18.28125 L 16.78125 -17.109375 L 6.46875 -3.546875 C 6.175781 -3.179688 5.890625 -2.832031 5.609375 -2.5 C 5.328125 -2.175781 4.976562 -1.84375 4.5625 -1.5 L 11.625 -1.390625 C 13.007812 -1.367188 14.023438 -1.816406 14.671875 -2.734375 C 15.316406 -3.660156 15.757812 -4.96875 16 -6.65625 L 17.0625 -6.65625 L 16.625 0 L 1.46875 0 Z M 1.46875 -1.5 "/></g></g></g><g fill="#000000" fill-opacity="1"><g transform="translate(90.7561, 36.217806)"><g><path d="M 10.234375 0.578125 C 9.253906 0.578125 8.289062 0.40625 7.34375 0.0625 C 6.394531 -0.269531 5.566406 -0.835938 4.859375 -1.640625 L 3.984375 0 L 2.703125 0 L 2.78125 -22.84375 C 2.78125 -23.769531 2.816406 -24.5625 2.890625 -25.21875 L 0.296875 -25.078125 L 0.296875 -26.609375 C 1.753906 -26.609375 2.789062 -26.691406 3.40625 -26.859375 C 4.03125 -27.035156 4.515625 -27.28125 4.859375 -27.59375 L 5.921875 -27.59375 L 5.921875 -16.703125 C 6.597656 -17.378906 7.40625 -17.90625 8.34375 -18.28125 C 9.289062 -18.664062 10.320312 -18.859375 11.4375 -18.859375 C 13 -18.859375 14.410156 -18.476562 15.671875 -17.71875 C 16.941406 -16.96875 17.9375 -15.882812 18.65625 -14.46875 C 19.375 -13.0625 19.734375 -11.429688 19.734375 -9.578125 C 19.734375 -7.554688 19.296875 -5.773438 18.421875 -4.234375 C 17.546875 -2.703125 16.375 -1.515625 14.90625 -0.671875 C 13.445312 0.160156 11.890625 0.578125 10.234375 0.578125 Z M 10.234375 -0.90625 C 11.984375 -0.90625 13.375 -1.617188 14.40625 -3.046875 C 15.445312 -4.472656 15.96875 -6.34375 15.96875 -8.65625 C 15.96875 -11.21875 15.492188 -13.257812 14.546875 -14.78125 C 13.597656 -16.300781 12.195312 -17.0625 10.34375 -17.0625 C 9.539062 -17.0625 8.742188 -16.875 7.953125 -16.5 C 7.160156 -16.125 6.484375 -15.617188 5.921875 -14.984375 L 5.921875 -5.734375 C 5.921875 -2.515625 7.359375 -0.90625 10.234375 -0.90625 Z M 10.234375 -0.90625 "/></g></g></g><g fill="#000000" fill-opacity="1"><g transform="translate(112.024088, 36.217806)"><g><path d="M 9.3125 0.578125 C 7.25 0.578125 5.734375 -0.015625 4.765625 -1.203125 C 3.804688 -2.398438 3.328125 -4.457031 3.328125 -7.375 L 3.328125 -13.890625 C 3.328125 -14.910156 3.375 -15.703125 3.46875 -16.265625 L 0.953125 -16.15625 L 0.953125 -17.65625 L 2.078125 -17.65625 C 3.035156 -17.65625 3.753906 -17.738281 4.234375 -17.90625 C 4.722656 -18.070312 5.140625 -18.316406 5.484375 -18.640625 L 6.546875 -18.640625 L 6.546875 -7.484375 C 6.546875 -5.347656 6.84375 -3.78125 7.4375 -2.78125 C 8.03125 -1.78125 9.023438 -1.28125 10.421875 -1.28125 C 11.316406 -1.28125 12.195312 -1.546875 13.0625 -2.078125 C 13.925781 -2.617188 14.628906 -3.289062 15.171875 -4.09375 L 15.171875 -13.484375 C 15.171875 -14.628906 15.226562 -15.554688 15.34375 -16.265625 L 12.71875 -16.15625 L 12.71875 -17.65625 L 13.84375 -17.65625 C 14.800781 -17.65625 15.519531 -17.738281 16 -17.90625 C 16.488281 -18.070312 16.90625 -18.316406 17.25 -18.640625 L 18.3125 -18.640625 L 18.28125 -4.828125 C 18.28125 -3.410156 18.226562 -2.265625 18.125 -1.390625 L 20.765625 -1.53125 L 20.765625 0 L 15.53125 0 C 15.40625 -0.757812 15.320312 -1.488281 15.28125 -2.1875 C 14.476562 -1.382812 13.539062 -0.722656 12.46875 -0.203125 C 11.394531 0.316406 10.34375 0.578125 9.3125 0.578125 Z M 9.3125 0.578125 "/></g></g></g><g fill="#000000" fill-opacity="1"><g transform="translate(133.840219, 36.217806)"><g><path d="M 1.46875 -1.5 L 11.65625 -14.625 C 12.050781 -15.132812 12.441406 -15.625 12.828125 -16.09375 C 13.210938 -16.570312 13.515625 -16.875 13.734375 -17 L 6.875 -16.890625 C 5.625 -16.859375 4.75 -16.410156 4.25 -15.546875 C 3.757812 -14.679688 3.390625 -13.410156 3.140625 -11.734375 L 2.015625 -11.734375 L 2.453125 -18.28125 L 16.78125 -18.28125 L 16.78125 -17.109375 L 6.46875 -3.546875 C 6.175781 -3.179688 5.890625 -2.832031 5.609375 -2.5 C 5.328125 -2.175781 4.976562 -1.84375 4.5625 -1.5 L 11.625 -1.390625 C 13.007812 -1.367188 14.023438 -1.816406 14.671875 -2.734375 C 15.316406 -3.660156 15.757812 -4.96875 16 -6.65625 L 17.0625 -6.65625 L 16.625 0 L 1.46875 0 Z M 1.46875 -1.5 "/></g></g></g><g fill="#000000" fill-opacity="1"><g transform="translate(152.330904, 36.217806)"><g><path d="M 10.453125 0.578125 C 8.773438 0.578125 7.257812 0.179688 5.90625 -0.609375 C 4.550781 -1.398438 3.484375 -2.53125 2.703125 -4 C 1.921875 -5.476562 1.53125 -7.175781 1.53125 -9.09375 C 1.53125 -10.800781 1.921875 -12.40625 2.703125 -13.90625 C 3.484375 -15.40625 4.570312 -16.601562 5.96875 -17.5 C 7.375 -18.40625 8.96875 -18.859375 10.75 -18.859375 C 12.132812 -18.859375 13.382812 -18.550781 14.5 -17.9375 C 15.625 -17.332031 16.515625 -16.425781 17.171875 -15.21875 C 17.828125 -14.007812 18.15625 -12.53125 18.15625 -10.78125 L 5.296875 -10.5625 C 5.273438 -7.632812 5.753906 -5.351562 6.734375 -3.71875 C 7.722656 -2.09375 9.253906 -1.28125 11.328125 -1.28125 C 12.453125 -1.28125 13.601562 -1.570312 14.78125 -2.15625 C 15.96875 -2.738281 16.875 -3.457031 17.5 -4.3125 L 18.390625 -3.578125 C 17.460938 -2.171875 16.257812 -1.125 14.78125 -0.4375 C 13.3125 0.238281 11.867188 0.578125 10.453125 0.578125 Z M 14.734375 -12.09375 C 14.734375 -13.5625 14.398438 -14.816406 13.734375 -15.859375 C 13.078125 -16.910156 12.09375 -17.4375 10.78125 -17.4375 C 7.757812 -17.4375 5.96875 -15.65625 5.40625 -12.09375 Z M 14.734375 -12.09375 "/></g></g></g><g fill="#000000" fill-opacity="1"><g transform="translate(172.137174, 36.217806)"><g><path d="M 1.609375 -1.09375 C 2.316406 -1.09375 2.820312 -1.269531 3.125 -1.625 C 3.425781 -1.976562 3.601562 -2.414062 3.65625 -2.9375 C 3.707031 -3.46875 3.742188 -4.34375 3.765625 -5.5625 L 3.796875 -13.890625 C 3.796875 -14.910156 3.847656 -15.703125 3.953125 -16.265625 L 1.359375 -16.125 L 1.359375 -17.65625 C 2.796875 -17.65625 3.78125 -17.734375 4.3125 -17.890625 C 4.84375 -18.046875 5.296875 -18.296875 5.671875 -18.640625 L 6.71875 -18.640625 C 6.769531 -18.171875 6.820312 -17.425781 6.875 -16.40625 C 7.695312 -17.132812 8.640625 -17.722656 9.703125 -18.171875 C 10.765625 -18.628906 11.804688 -18.859375 12.828125 -18.859375 C 14.941406 -18.859375 16.488281 -18.191406 17.46875 -16.859375 C 18.445312 -15.535156 18.9375 -13.472656 18.9375 -10.671875 L 18.9375 -3.875 C 18.9375 -2.78125 18.882812 -1.953125 18.78125 -1.390625 L 21.09375 -1.5 L 21.09375 0 L 13.625 0 L 13.625 -1.09375 C 14.332031 -1.09375 14.835938 -1.269531 15.140625 -1.625 C 15.453125 -1.976562 15.632812 -2.425781 15.6875 -2.96875 C 15.75 -3.519531 15.78125 -4.382812 15.78125 -5.5625 L 15.78125 -10.671875 C 15.757812 -12.765625 15.421875 -14.34375 14.765625 -15.40625 C 14.109375 -16.46875 13.070312 -17 11.65625 -17 C 10.78125 -17 9.910156 -16.773438 9.046875 -16.328125 C 8.179688 -15.890625 7.46875 -15.320312 6.90625 -14.625 C 6.925781 -14.351562 6.9375 -13.875 6.9375 -13.1875 L 6.90625 -3.875 C 6.90625 -2.78125 6.859375 -1.953125 6.765625 -1.390625 L 9.0625 -1.5 L 9.0625 0 L 1.609375 0 Z M 1.609375 -1.09375 "/></g></g></g><g fill="#000000" fill-opacity="1"><g transform="translate(194.318737, 36.217806)"><g><path d="M 1.609375 -1.09375 C 2.316406 -1.09375 2.820312 -1.269531 3.125 -1.625 C 3.425781 -1.976562 3.609375 -2.425781 3.671875 -2.96875 C 3.734375 -3.519531 3.765625 -4.382812 3.765625 -5.5625 L 3.765625 -13.890625 C 3.765625 -14.597656 3.8125 -15.390625 3.90625 -16.265625 L 1.3125 -16.125 L 1.3125 -17.65625 C 2.75 -17.65625 3.773438 -17.738281 4.390625 -17.90625 C 5.015625 -18.070312 5.5 -18.316406 5.84375 -18.640625 L 6.90625 -18.640625 L 6.90625 -3.875 C 6.90625 -2.78125 6.859375 -1.953125 6.765625 -1.390625 L 9.0625 -1.5 L 9.0625 0 L 1.609375 0 Z M 7.3125 -25.078125 C 7.820312 -25.609375 8.078125 -26.128906 8.078125 -26.640625 C 8.078125 -27.035156 7.929688 -27.378906 7.640625 -27.671875 C 7.347656 -27.859375 7.054688 -27.953125 6.765625 -27.953125 C 6.234375 -27.953125 5.734375 -27.625 5.265625 -26.96875 L 2.203125 -22.03125 L 3.21875 -21.203125 Z M 7.3125 -25.078125 "/></g></g></g><g fill="#000000" fill-opacity="1"><g transform="translate(204.589654, 36.217806)"><g/></g></g></svg>